<svg width="800px" height="800px" viewBox="-2.4 -2.4 28.80 28.80" fill="none" xmlns="http://www.w3.org/2000/svg" stroke="#ffffff"><g id="SVGRepo_bgCarrier" stroke-width="0"><path transform="translate(-2.4, -2.4), scale(0.8999999999999999)" d="M16,31.470117957464286C18.844928139884836,31.311062304111516,21.17224437786372,29.240738512535682,23.270211362628743,27.312669698201496C25.110315412511483,25.621581487818478,26.09908706269932,23.35636062611539,27.24525032940653,21.13553374953488C28.453076357150792,18.795227981095746,30.320097690688986,16.592889376753387,30.15932550138823,13.964196335290882C29.99485440141628,11.275024545702493,28.2655859887052,8.930178420006275,26.38100787657814,7.004805470176658C24.56931498504683,5.153895463153398,22.262712479116455,3.834810488565461,19.727216364712916,3.306266790118043C17.30834974184918,2.802035407692843,14.94528372337435,3.697008167479283,12.509729603436892,4.113230650152085C9.715430206782294,4.590760680253222,6.185516610791998,3.745664880546473,4.377886012994654,5.9293809036821425C2.563582143746823,8.12115860148238,4.4724879740276835,11.468135353152396,4.087870432182779,14.28729433289216C3.7073161734727744,17.07667037272223,1.342303985815391,19.62974404547285,2.1404256829806947,22.32945551003983C2.950408714016147,25.069288899806978,5.802826293266465,26.58291221386249,8.187877225161259,28.15590031506227C10.598063151339977,29.745465440426866,13.117338168169946,31.6312832447799,16,31.470117957464286" fill="#9903f65d" strokewidth="0"></path></g><g id="SVGRepo_tracerCarrier" stroke-linecap="round" stroke-linejoin="round"></g><g id="SVGRepo_iconCarrier"></g></svg>
